<svg xmlns="http://www.w3.org/2000/svg" width="901.0784912109375" height="990.553955078125" viewBox="-515.5962524414062 -430.8649597167969 901.0784912109375 990.553955078125"><title>Neo4j Graph Visualization</title><desc>Created using Neo4j (http://www.neo4j.com/)</desc><g class="layer relationships"><g class="relationship" transform="translate(-57.65334063676841 48.44580138545782) rotate(436.9841032935212)"><path class="b-outline" fill="#A5ABB6" stroke="none" d="M 25 0.5 L 122.46436393298413 0.5 L 122.46436393298413 -0.5 L 25 -0.5 Z M 201.36280143298413 0.5 L 298.82716536596826 0.5 L 298.82716536596826 3.5 L 305.82716536596826 0 L 298.82716536596826 -3.5 L 298.82716536596826 -0.5 L 201.36280143298413 -0.5 Z"/><text text-anchor="middle" pointer-events="none" font-size="8px" fill="#000000" x="161.91358268298413" y="3" font-family="Helvetica Neue, Helvetica, Arial, sans-serif">HAS_COMPONENT</text></g><g class="relationship" transform="translate(16.85601158654 370.77322773224677) rotate(473.4568809656557)"><path class="b-outline" fill="#A5ABB6" stroke="none" d="M 25 0.5 L 52.58968643459508 0.5 L 52.58968643459508 -0.5 L 25 -0.5 Z M 103.49203018459508 0.5 L 131.08171661919016 0.5 L 131.08171661919016 3.5 L 138.08171661919016 0 L 131.08171661919016 -3.5 L 131.08171661919016 -0.5 L 103.49203018459508 -0.5 Z"/><text text-anchor="middle" pointer-events="none" font-size="8px" fill="#000000" x="78.04085830959508" y="3" transform="rotate(180 78.04085830959508 0)" font-family="Helvetica Neue, Helvetica, Arial, sans-serif">HAS_CHILD</text></g><g class="relationship" transform="translate(16.85601158654 370.77322773224677) rotate(185.71263135614151)"><path class="b-outline" fill="#A5ABB6" stroke="none" d="M 25 0.5 L 46.25370263055676 0.5 L 46.25370263055676 -0.5 L 25 -0.5 Z M 97.15604638055676 0.5 L 118.40974901111352 0.5 L 118.40974901111352 3.5 L 125.40974901111352 0 L 118.40974901111352 -3.5 L 118.40974901111352 -0.5 L 97.15604638055676 -0.5 Z"/><text text-anchor="middle" pointer-events="none" font-size="8px" fill="#000000" x="71.70487450555676" y="3" transform="rotate(180 71.70487450555676 0)" font-family="Helvetica Neue, Helvetica, Arial, sans-serif">HAS_CHILD</text></g><g class="relationship" transform="translate(16.85601158654 370.77322773224677) rotate(508.8110826918688)"><path class="b-outline" fill="#A5ABB6" stroke="none" d="M 25 0.5 L 52.070151050038305 0.5 L 52.070151050038305 -0.5 L 25 -0.5 Z M 102.9724948000383 0.5 L 130.0426458500766 0.5 L 130.0426458500766 3.5 L 137.0426458500766 0 L 130.0426458500766 -3.5 L 130.0426458500766 -0.5 L 102.9724948000383 -0.5 Z"/><text text-anchor="middle" pointer-events="none" font-size="8px" fill="#000000" x="77.5213229250383" y="3" transform="rotate(180 77.5213229250383 0)" font-family="Helvetica Neue, Helvetica, Arial, sans-serif">HAS_CHILD</text></g><g class="relationship" transform="translate(16.85601158654 370.77322773224677) rotate(225.18213604022878)"><path class="b-outline" fill="#A5ABB6" stroke="none" d="M 25 0.5 L 42.910574201407826 0.5 L 42.910574201407826 -0.5 L 25 -0.5 Z M 93.81291795140783 0.5 L 111.72349215281565 0.5 L 111.72349215281565 3.5 L 118.72349215281565 0 L 111.72349215281565 -3.5 L 111.72349215281565 -0.5 L 93.81291795140783 -0.5 Z"/><text text-anchor="middle" pointer-events="none" font-size="8px" fill="#000000" x="68.36174607640783" y="3" transform="rotate(180 68.36174607640783 0)" font-family="Helvetica Neue, Helvetica, Arial, sans-serif">HAS_CHILD</text></g><g class="relationship" transform="translate(16.85601158654 370.77322773224677) rotate(438.31100324279674)"><path class="b-outline" fill="#A5ABB6" stroke="none" d="M 25 0.5 L 52.700007796685625 0.5 L 52.700007796685625 -0.5 L 25 -0.5 Z M 103.60235154668563 0.5 L 131.30235934337125 0.5 L 131.30235934337125 3.5 L 138.30235934337125 0 L 131.30235934337125 -3.5 L 131.30235934337125 -0.5 L 103.60235154668563 -0.5 Z"/><text text-anchor="middle" pointer-events="none" font-size="8px" fill="#000000" x="78.15117967168563" y="3" font-family="Helvetica Neue, Helvetica, Arial, sans-serif">HAS_CHILD</text></g><g class="relationship" transform="translate(16.85601158654 370.77322773224677) rotate(403.0791566661187)"><path class="b-outline" fill="#A5ABB6" stroke="none" d="M 25 0.5 L 53.014889788487224 0.5 L 53.014889788487224 -0.5 L 25 -0.5 Z M 103.91723353848722 0.5 L 131.93212332697445 0.5 L 131.93212332697445 3.5 L 138.93212332697445 0 L 131.93212332697445 -3.5 L 131.93212332697445 -0.5 L 103.91723353848722 -0.5 Z"/><text text-anchor="middle" pointer-events="none" font-size="8px" fill="#000000" x="78.46606166348722" y="3" font-family="Helvetica Neue, Helvetica, Arial, sans-serif">HAS_CHILD</text></g><g class="relationship" transform="translate(16.85601158654 370.77322773224677) rotate(331.09456699584086)"><path class="b-outline" fill="#A5ABB6" stroke="none" d="M 25 0.5 L 46.77151657734461 0.5 L 46.77151657734461 -0.5 L 25 -0.5 Z M 97.67386032734461 0.5 L 119.44537690468923 0.5 L 119.44537690468923 3.5 L 126.44537690468923 0 L 119.44537690468923 -3.5 L 119.44537690468923 -0.5 L 97.67386032734461 -0.5 Z"/><text text-anchor="middle" pointer-events="none" font-size="8px" fill="#000000" x="72.22268845234461" y="3" font-family="Helvetica Neue, Helvetica, Arial, sans-serif">HAS_CHILD</text></g><g class="relationship" transform="translate(16.85601158654 370.77322773224677) rotate(291.5696799983632)"><path class="b-outline" fill="#A5ABB6" stroke="none" d="M 25 0.5 L 41.78995058133084 0.5 L 41.78995058133084 -0.5 L 25 -0.5 Z M 92.69229433133084 0.5 L 109.48224491266168 0.5 L 109.48224491266168 3.5 L 116.48224491266168 0 L 109.48224491266168 -3.5 L 109.48224491266168 -0.5 L 92.69229433133084 -0.5 Z"/><text text-anchor="middle" pointer-events="none" font-size="8px" fill="#000000" x="67.24112245633084" y="3" font-family="Helvetica Neue, Helvetica, Arial, sans-serif">HAS_CHILD</text></g><g class="relationship" transform="translate(16.85601158654 370.77322773224677) rotate(367.75483437670937)"><path class="b-outline" fill="#A5ABB6" stroke="none" d="M 25 0.5 L 52.52456604622479 0.5 L 52.52456604622479 -0.5 L 25 -0.5 Z M 103.42690979622479 0.5 L 130.95147584244958 0.5 L 130.95147584244958 3.5 L 137.95147584244958 0 L 130.95147584244958 -3.5 L 130.95147584244958 -0.5 L 103.42690979622479 -0.5 Z"/><text text-anchor="middle" pointer-events="none" font-size="8px" fill="#000000" x="77.97573792122479" y="3" font-family="Helvetica Neue, Helvetica, Arial, sans-serif">HAS_CHILD</text></g><g class="relationship" transform="translate(-57.65334063676841 48.44580138545782) rotate(343.83831288920135)"><path class="b-outline" fill="#A5ABB6" stroke="none" d="M 25 0.5 L 83.2556683699084 0.5 L 83.2556683699084 -0.5 L 25 -0.5 Z M 162.1541058699084 0.5 L 220.4097742398168 0.5 L 220.4097742398168 3.5 L 227.4097742398168 0 L 220.4097742398168 -3.5 L 220.4097742398168 -0.5 L 162.1541058699084 -0.5 Z"/><text text-anchor="middle" pointer-events="none" font-size="8px" fill="#000000" x="122.7048871199084" y="3" font-family="Helvetica Neue, Helvetica, Arial, sans-serif">HAS_COMPONENT</text></g><g class="relationship" transform="translate(184.78120650207467 -21.812183821772294) rotate(423.7711288657714)"><path class="b-outline" fill="#A5ABB6" stroke="none" d="M 25 0.5 L 58.285028230654774 0.5 L 58.285028230654774 -0.5 L 25 -0.5 Z M 109.18737198065477 0.5 L 142.47240021130955 0.5 L 142.47240021130955 3.5 L 149.47240021130955 0 L 142.47240021130955 -3.5 L 142.47240021130955 -0.5 L 109.18737198065477 -0.5 Z"/><text text-anchor="middle" pointer-events="none" font-size="8px" fill="#000000" x="83.73620010565477" y="3" font-family="Helvetica Neue, Helvetica, Arial, sans-serif">HAS_CHILD</text></g><g class="relationship" transform="translate(184.78120650207467 -21.812183821772294) rotate(366.11277804991096)"><path class="b-outline" fill="#A5ABB6" stroke="none" d="M 25 0.5 L 57.390304318022416 0.5 L 57.390304318022416 -0.5 L 25 -0.5 Z M 108.29264806802242 0.5 L 140.68295238604483 0.5 L 140.68295238604483 3.5 L 147.68295238604483 0 L 140.68295238604483 -3.5 L 140.68295238604483 -0.5 L 108.29264806802242 -0.5 Z"/><text text-anchor="middle" pointer-events="none" font-size="8px" fill="#000000" x="82.84147619302242" y="3" font-family="Helvetica Neue, Helvetica, Arial, sans-serif">HAS_CHILD</text></g><g class="relationship" transform="translate(184.78120650207467 -21.812183821772294) rotate(331.5976340062337)"><path class="b-outline" fill="#A5ABB6" stroke="none" d="M 25 0.5 L 50.61031309948784 0.5 L 50.61031309948784 -0.5 L 25 -0.5 Z M 101.51265684948784 0.5 L 127.12296994897568 0.5 L 127.12296994897568 3.5 L 134.12296994897568 0 L 127.12296994897568 -3.5 L 127.12296994897568 -0.5 L 101.51265684948784 -0.5 Z"/><text text-anchor="middle" pointer-events="none" font-size="8px" fill="#000000" x="76.06148497448784" y="3" font-family="Helvetica Neue, Helvetica, Arial, sans-serif">HAS_CHILD</text></g><g class="relationship" transform="translate(184.78120650207467 -21.812183821772294) rotate(294.6062063934658)"><path class="b-outline" fill="#A5ABB6" stroke="none" d="M 25 0.5 L 48.38281603273262 0.5 L 48.38281603273262 -0.5 L 25 -0.5 Z M 99.28515978273262 0.5 L 122.66797581546524 0.5 L 122.66797581546524 3.5 L 129.66797581546524 0 L 122.66797581546524 -3.5 L 122.66797581546524 -0.5 L 99.28515978273262 -0.5 Z"/><text text-anchor="middle" pointer-events="none" font-size="8px" fill="#000000" x="73.83398790773262" y="3" font-family="Helvetica Neue, Helvetica, Arial, sans-serif">HAS_CHILD</text></g><g class="relationship" transform="translate(-57.65334063676841 48.44580138545782) rotate(367.6810716442162)"><path class="b-outline" fill="#A5ABB6" stroke="none" d="M 25 0.5 L 42.77695209354948 0.5 L 42.77695209354948 -0.5 L 25 -0.5 Z M 121.67538959354948 0.5 L 139.45234168709896 0.5 L 139.45234168709896 3.5 L 146.45234168709896 0 L 139.45234168709896 -3.5 L 139.45234168709896 -0.5 L 121.67538959354948 -0.5 Z"/><text text-anchor="middle" pointer-events="none" font-size="8px" fill="#000000" x="82.22617084354948" y="3" font-family="Helvetica Neue, Helvetica, Arial, sans-serif">HAS_COMPONENT</text></g><g class="relationship" transform="translate(112.26062941493707 71.36191473955573) rotate(266.5173944345081)"><path class="b-outline" fill="#A5ABB6" stroke="none" d="M 25 0.5 L 46.16194596609863 0.5 L 46.16194596609863 -0.5 L 25 -0.5 Z M 97.06428971609863 0.5 L 118.22623568219726 0.5 L 118.22623568219726 3.5 L 125.22623568219726 0 L 118.22623568219726 -3.5 L 118.22623568219726 -0.5 L 97.06428971609863 -0.5 Z"/><text text-anchor="middle" pointer-events="none" font-size="8px" fill="#000000" x="71.61311784109863" y="3" transform="rotate(180 71.61311784109863 0)" font-family="Helvetica Neue, Helvetica, Arial, sans-serif">HAS_CHILD</text></g><g class="relationship" transform="translate(112.26062941493707 71.36191473955573) rotate(347.1357629446155)"><path class="b-outline" fill="#A5ABB6" stroke="none" d="M 25 0.5 L 49.65320963449615 0.5 L 49.65320963449615 -0.5 L 25 -0.5 Z M 100.55555338449615 0.5 L 125.2087630189923 0.5 L 125.2087630189923 3.5 L 132.2087630189923 0 L 125.2087630189923 -3.5 L 125.2087630189923 -0.5 L 100.55555338449615 -0.5 Z"/><text text-anchor="middle" pointer-events="none" font-size="8px" fill="#000000" x="75.10438150949615" y="3" font-family="Helvetica Neue, Helvetica, Arial, sans-serif">HAS_CHILD</text></g><g class="relationship" transform="translate(-57.65334063676841 48.44580138545782) rotate(275.5415463431039)"><path class="b-outline" fill="#A5ABB6" stroke="none" d="M 25 0.5 L 107.53785226481543 0.5 L 107.53785226481543 -0.5 L 25 -0.5 Z M 186.43628976481543 0.5 L 268.97414202963085 0.5 L 268.97414202963085 3.5 L 275.97414202963085 0 L 268.97414202963085 -3.5 L 268.97414202963085 -0.5 L 186.43628976481543 -0.5 Z"/><text text-anchor="middle" pointer-events="none" font-size="8px" fill="#000000" x="146.98707101481543" y="3" font-family="Helvetica Neue, Helvetica, Arial, sans-serif">HAS_COMPONENT</text></g><g class="relationship" transform="translate(-28.589017338852727 -251.12171901972005) rotate(323.21060387983437)"><path class="b-outline" fill="#A5ABB6" stroke="none" d="M 25 0.5 L 47.30776934974273 0.5 L 47.30776934974273 -0.5 L 25 -0.5 Z M 98.21011309974273 0.5 L 120.51788244948546 0.5 L 120.51788244948546 3.5 L 127.51788244948546 0 L 120.51788244948546 -3.5 L 120.51788244948546 -0.5 L 98.21011309974273 -0.5 Z"/><text text-anchor="middle" pointer-events="none" font-size="8px" fill="#000000" x="72.75894122474273" y="3" font-family="Helvetica Neue, Helvetica, Arial, sans-serif">HAS_CHILD</text></g><g class="relationship" transform="translate(-28.589017338852727 -251.12171901972005) rotate(248.65330380703602)"><path class="b-outline" fill="#A5ABB6" stroke="none" d="M 25 0.5 L 49.92073827407509 0.5 L 49.92073827407509 -0.5 L 25 -0.5 Z M 100.82308202407509 0.5 L 125.74382029815018 0.5 L 125.74382029815018 3.5 L 132.74382029815018 0 L 125.74382029815018 -3.5 L 125.74382029815018 -0.5 L 100.82308202407509 -0.5 Z"/><text text-anchor="middle" pointer-events="none" font-size="8px" fill="#000000" x="75.37191014907509" y="3" transform="rotate(180 75.37191014907509 0)" font-family="Helvetica Neue, Helvetica, Arial, sans-serif">HAS_CHILD</text></g><g class="relationship" transform="translate(-28.589017338852727 -251.12171901972005) rotate(285.6238208148618)"><path class="b-outline" fill="#A5ABB6" stroke="none" d="M 25 0.5 L 49.3122214636151 0.5 L 49.3122214636151 -0.5 L 25 -0.5 Z M 100.2145652136151 0.5 L 124.5267866772302 0.5 L 124.5267866772302 3.5 L 131.5267866772302 0 L 124.5267866772302 -3.5 L 124.5267866772302 -0.5 L 100.2145652136151 -0.5 Z"/><text text-anchor="middle" pointer-events="none" font-size="8px" fill="#000000" x="74.7633933386151" y="3" font-family="Helvetica Neue, Helvetica, Arial, sans-serif">HAS_CHILD</text></g><g class="relationship" transform="translate(-57.65334063676841 48.44580138545782) rotate(238.0423004082594)"><path class="b-outline" fill="#A5ABB6" stroke="none" d="M 25 0.5 L 81.17921260316915 0.5 L 81.17921260316915 -0.5 L 25 -0.5 Z M 160.07765010316916 0.5 L 216.2568627063383 0.5 L 216.2568627063383 3.5 L 223.2568627063383 0 L 216.2568627063383 -3.5 L 216.2568627063383 -0.5 L 160.07765010316916 -0.5 Z"/><text text-anchor="middle" pointer-events="none" font-size="8px" fill="#000000" x="120.62843135316915" y="3" transform="rotate(180 120.62843135316915 0)" font-family="Helvetica Neue, Helvetica, Arial, sans-serif">HAS_COMPONENT</text></g><g class="relationship" transform="translate(-189.05396566541464 -162.18502642204714) rotate(404.09037146172074)"><path class="b-outline" fill="#A5ABB6" stroke="none" d="M 25 0.5 L 41.8971040660045 0.5 L 41.8971040660045 -0.5 L 25 -0.5 Z M 92.7994478160045 0.5 L 109.696551882009 0.5 L 109.696551882009 3.5 L 116.696551882009 0 L 109.696551882009 -3.5 L 109.696551882009 -0.5 L 92.7994478160045 -0.5 Z"/><text text-anchor="middle" pointer-events="none" font-size="8px" fill="#000000" x="67.3482759410045" y="3" font-family="Helvetica Neue, Helvetica, Arial, sans-serif">HAS_CHILD</text></g><g class="relationship" transform="translate(-189.05396566541464 -162.18502642204714) rotate(196.11534692722876)"><path class="b-outline" fill="#A5ABB6" stroke="none" d="M 25 0.5 L 47.03301981262 0.5 L 47.03301981262 -0.5 L 25 -0.5 Z M 97.93536356262 0.5 L 119.96838337524 0.5 L 119.96838337524 3.5 L 126.96838337524 0 L 119.96838337524 -3.5 L 119.96838337524 -0.5 L 97.93536356262 -0.5 Z"/><text text-anchor="middle" pointer-events="none" font-size="8px" fill="#000000" x="72.48419168762" y="3" transform="rotate(180 72.48419168762 0)" font-family="Helvetica Neue, Helvetica, Arial, sans-serif">HAS_CHILD</text></g><g class="relationship" transform="translate(-189.05396566541464 -162.18502642204714) rotate(363.6986308331774)"><path class="b-outline" fill="#A5ABB6" stroke="none" d="M 25 0.5 L 44.36831262863659 0.5 L 44.36831262863659 -0.5 L 25 -0.5 Z M 95.27065637863659 0.5 L 114.63896900727318 0.5 L 114.63896900727318 3.5 L 121.63896900727318 0 L 114.63896900727318 -3.5 L 114.63896900727318 -0.5 L 95.27065637863659 -0.5 Z"/><text text-anchor="middle" pointer-events="none" font-size="8px" fill="#000000" x="69.81948450363659" y="3" font-family="Helvetica Neue, Helvetica, Arial, sans-serif">HAS_CHILD</text></g><g class="relationship" transform="translate(-189.05396566541464 -162.18502642204714) rotate(271.6671524650558)"><path class="b-outline" fill="#A5ABB6" stroke="none" d="M 25 0.5 L 47.53062250462037 0.5 L 47.53062250462037 -0.5 L 25 -0.5 Z M 98.43296625462037 0.5 L 120.96358875924074 0.5 L 120.96358875924074 3.5 L 127.96358875924074 0 L 120.96358875924074 -3.5 L 120.96358875924074 -0.5 L 98.43296625462037 -0.5 Z"/><text text-anchor="middle" pointer-events="none" font-size="8px" fill="#000000" x="72.98179437962037" y="3" font-family="Helvetica Neue, Helvetica, Arial, sans-serif">HAS_CHILD</text></g><g class="relationship" transform="translate(-189.05396566541464 -162.18502642204714) rotate(233.94097927382563)"><path class="b-outline" fill="#A5ABB6" stroke="none" d="M 25 0.5 L 48.69127328384738 0.5 L 48.69127328384738 -0.5 L 25 -0.5 Z M 99.59361703384738 0.5 L 123.28489031769476 0.5 L 123.28489031769476 3.5 L 130.28489031769476 0 L 123.28489031769476 -3.5 L 123.28489031769476 -0.5 L 99.59361703384738 -0.5 Z"/><text text-anchor="middle" pointer-events="none" font-size="8px" fill="#000000" x="74.14244515884738" y="3" transform="rotate(180 74.14244515884738 0)" font-family="Helvetica Neue, Helvetica, Arial, sans-serif">HAS_CHILD</text></g><g class="relationship" transform="translate(-57.65334063676841 48.44580138545782) rotate(523.9762134026196)"><path class="b-outline" fill="#A5ABB6" stroke="none" d="M 25 0.5 L 97.71021258627457 0.5 L 97.71021258627457 -0.5 L 25 -0.5 Z M 176.60865008627457 0.5 L 249.31886267254913 0.5 L 249.31886267254913 3.5 L 256.31886267254913 0 L 249.31886267254913 -3.5 L 249.31886267254913 -0.5 L 176.60865008627457 -0.5 Z"/><text text-anchor="middle" pointer-events="none" font-size="8px" fill="#000000" x="137.15943133627457" y="3" transform="rotate(180 137.15943133627457 0)" font-family="Helvetica Neue, Helvetica, Arial, sans-serif">HAS_COMPONENT</text></g><g class="relationship" transform="translate(-328.04217246523814 126.10004864735636) rotate(437.8974571118624)"><path class="b-outline" fill="#A5ABB6" stroke="none" d="M 25 0.5 L 45.10720182529583 0.5 L 45.10720182529583 -0.5 L 25 -0.5 Z M 96.00954557529583 0.5 L 116.11674740059166 0.5 L 116.11674740059166 3.5 L 123.11674740059166 0 L 116.11674740059166 -3.5 L 116.11674740059166 -0.5 L 96.00954557529583 -0.5 Z"/><text text-anchor="middle" pointer-events="none" font-size="8px" fill="#000000" x="70.55837370029583" y="3" font-family="Helvetica Neue, Helvetica, Arial, sans-serif">HAS_CHILD</text></g><g class="relationship" transform="translate(-328.04217246523814 126.10004864735636) rotate(302.24932912844577)"><path class="b-outline" fill="#A5ABB6" stroke="none" d="M 25 0.5 L 41.51019384616056 0.5 L 41.51019384616056 -0.5 L 25 -0.5 Z M 92.41253759616056 0.5 L 108.92273144232112 0.5 L 108.92273144232112 3.5 L 115.92273144232112 0 L 108.92273144232112 -3.5 L 108.92273144232112 -0.5 L 92.41253759616056 -0.5 Z"/><text text-anchor="middle" pointer-events="none" font-size="8px" fill="#000000" x="66.96136572116056" y="3" font-family="Helvetica Neue, Helvetica, Arial, sans-serif">HAS_CHILD</text></g><g class="relationship" transform="translate(-328.04217246523814 126.10004864735636) rotate(261.9613502115808)"><path class="b-outline" fill="#A5ABB6" stroke="none" d="M 25 0.5 L 45.83500826875475 0.5 L 45.83500826875475 -0.5 L 25 -0.5 Z M 96.73735201875475 0.5 L 117.5723602875095 0.5 L 117.5723602875095 3.5 L 124.5723602875095 0 L 117.5723602875095 -3.5 L 117.5723602875095 -0.5 L 96.73735201875475 -0.5 Z"/><text text-anchor="middle" pointer-events="none" font-size="8px" fill="#000000" x="71.28618014375475" y="3" transform="rotate(180 71.28618014375475 0)" font-family="Helvetica Neue, Helvetica, Arial, sans-serif">HAS_CHILD</text></g><g class="relationship" transform="translate(-328.04217246523814 126.10004864735636) rotate(188.50465118548817)"><path class="b-outline" fill="#A5ABB6" stroke="none" d="M 25 0.5 L 51.2073020176249 0.5 L 51.2073020176249 -0.5 L 25 -0.5 Z M 102.1096457676249 0.5 L 128.3169477852498 0.5 L 128.3169477852498 3.5 L 135.3169477852498 0 L 128.3169477852498 -3.5 L 128.3169477852498 -0.5 L 102.1096457676249 -0.5 Z"/><text text-anchor="middle" pointer-events="none" font-size="8px" fill="#000000" x="76.6584738926249" y="3" transform="rotate(180 76.6584738926249 0)" font-family="Helvetica Neue, Helvetica, Arial, sans-serif">HAS_CHILD</text></g><g class="relationship" transform="translate(-328.04217246523814 126.10004864735636) rotate(224.6494534044483)"><path class="b-outline" fill="#A5ABB6" stroke="none" d="M 25 0.5 L 50.85713387823547 0.5 L 50.85713387823547 -0.5 L 25 -0.5 Z M 101.75947762823547 0.5 L 127.61661150647095 0.5 L 127.61661150647095 3.5 L 134.61661150647095 0 L 127.61661150647095 -3.5 L 127.61661150647095 -0.5 L 101.75947762823547 -0.5 Z"/><text text-anchor="middle" pointer-events="none" font-size="8px" fill="#000000" x="76.30830575323547" y="3" transform="rotate(180 76.30830575323547 0)" font-family="Helvetica Neue, Helvetica, Arial, sans-serif">HAS_CHILD</text></g><g class="relationship" transform="translate(-328.04217246523814 126.10004864735636) rotate(512.4373016959123)"><path class="b-outline" fill="#A5ABB6" stroke="none" d="M 25 0.5 L 50.79558843353813 0.5 L 50.79558843353813 -0.5 L 25 -0.5 Z M 101.69793218353813 0.5 L 127.49352061707626 0.5 L 127.49352061707626 3.5 L 134.49352061707626 0 L 127.49352061707626 -3.5 L 127.49352061707626 -0.5 L 101.69793218353813 -0.5 Z"/><text text-anchor="middle" pointer-events="none" font-size="8px" fill="#000000" x="76.24676030853813" y="3" transform="rotate(180 76.24676030853813 0)" font-family="Helvetica Neue, Helvetica, Arial, sans-serif">HAS_CHILD</text></g><g class="relationship" transform="translate(-328.04217246523814 126.10004864735636) rotate(475.7803839052375)"><path class="b-outline" fill="#A5ABB6" stroke="none" d="M 25 0.5 L 49.604785235931374 0.5 L 49.604785235931374 -0.5 L 25 -0.5 Z M 100.50712898593137 0.5 L 125.11191422186275 0.5 L 125.11191422186275 3.5 L 132.11191422186275 0 L 125.11191422186275 -3.5 L 125.11191422186275 -0.5 L 100.50712898593137 -0.5 Z"/><text text-anchor="middle" pointer-events="none" font-size="8px" fill="#000000" x="75.05595711093137" y="3" transform="rotate(180 75.05595711093137 0)" font-family="Helvetica Neue, Helvetica, Arial, sans-serif">HAS_CHILD</text></g></g><g class="layer nodes"><g class="node" aria-label="graph-node0" transform="translate(-57.65334063676841,48.44580138545782)"><circle class="b-outline" cx="0" cy="0" r="25" fill="#C990C0" stroke="#b261a5" stroke-width="2px"/><text class="caption" text-anchor="middle" pointer-events="none" x="0" y="5" font-size="10px" fill="#FFFFFF" font-family="Helvetica Neue, Helvetica, Arial, sans-serif"> Constitui…</text></g><g class="node" aria-label="graph-node10125" transform="translate(-48.06010164494764,520.3778551285226)"><circle class="b-outline" cx="0" cy="0" r="25" fill="#F79767" stroke="#f36924" stroke-width="2px"/><text class="caption" text-anchor="middle" pointer-events="none" x="0" y="5" font-size="10px" fill="#FFFFFF" font-family="Helvetica Neue, Helvetica, Arial, sans-serif"> chapter</text></g><g class="node" aria-label="graph-node10141" transform="translate(-132.80674994836258,355.8015742720225)"><circle class="b-outline" cx="0" cy="0" r="25" fill="#F79767" stroke="#f36924" stroke-width="2px"/><text class="caption" text-anchor="middle" pointer-events="none" x="0" y="5" font-size="10px" fill="#FFFFFF" font-family="Helvetica Neue, Helvetica, Arial, sans-serif"> chapter</text></g><g class="node" aria-label="graph-node10821" transform="translate(-121.76571064876669,454.68888299758345)"><circle class="b-outline" cx="0" cy="0" r="25" fill="#F79767" stroke="#f36924" stroke-width="2px"/><text class="caption" text-anchor="middle" pointer-events="none" x="0" y="5" font-size="10px" fill="#FFFFFF" font-family="Helvetica Neue, Helvetica, Arial, sans-serif"> chapter</text></g><g class="node" aria-label="graph-node11485" transform="translate(-84.4482692812287,268.82282373861517)"><circle class="b-outline" cx="0" cy="0" r="25" fill="#F79767" stroke="#f36924" stroke-width="2px"/><text class="caption" text-anchor="middle" pointer-events="none" x="0" y="5" font-size="10px" fill="#FFFFFF" font-family="Helvetica Neue, Helvetica, Arial, sans-serif"> chapter</text></g><g class="node" aria-label="graph-node11489" transform="translate(49.94094530219876,530.6889797022826)"><circle class="b-outline" cx="0" cy="0" r="25" fill="#F79767" stroke="#f36924" stroke-width="2px"/><text class="caption" text-anchor="middle" pointer-events="none" x="0" y="5" font-size="10px" fill="#FFFFFF" font-family="Helvetica Neue, Helvetica, Arial, sans-serif"> chapter</text></g><g class="node" aria-label="graph-node11561" transform="translate(136.59380377020386,482.7401968859757)"><circle class="b-outline" cx="0" cy="0" r="25" fill="#F79767" stroke="#f36924" stroke-width="2px"/><text class="caption" text-anchor="middle" pointer-events="none" x="0" y="5" font-size="10px" fill="#FFFFFF" font-family="Helvetica Neue, Helvetica, Arial, sans-serif"> chapter</text></g><g class="node" aria-label="graph-node11689" transform="translate(149.434126010265,297.56977315766363)"><circle class="b-outline" cx="0" cy="0" r="25" fill="#F79767" stroke="#f36924" stroke-width="2px"/><text class="caption" text-anchor="middle" pointer-events="none" x="0" y="5" font-size="10px" fill="#FFFFFF" font-family="Helvetica Neue, Helvetica, Arial, sans-serif"> chapter</text></g><g class="node" aria-label="graph-node11765" transform="translate(68.86947994129959,239.19882013246007)"><circle class="b-outline" cx="0" cy="0" r="25" fill="#F79767" stroke="#f36924" stroke-width="2px"/><text class="caption" text-anchor="middle" pointer-events="none" x="0" y="5" font-size="10px" fill="#FFFFFF" font-family="Helvetica Neue, Helvetica, Arial, sans-serif"> chapter</text></g><g class="node" aria-label="graph-node11933" transform="translate(178.31721726596922,392.7610093342521)"><circle class="b-outline" cx="0" cy="0" r="25" fill="#F79767" stroke="#f36924" stroke-width="2px"/><text class="caption" text-anchor="middle" pointer-events="none" x="0" y="5" font-size="10px" fill="#FFFFFF" font-family="Helvetica Neue, Helvetica, Arial, sans-serif"> chapter</text></g><g class="node" aria-label="graph-node10049" transform="translate(261.8906659352355,134.69580224098775)"><circle class="b-outline" cx="0" cy="0" r="25" fill="#F79767" stroke="#f36924" stroke-width="2px"/><text class="caption" text-anchor="middle" pointer-events="none" x="0" y="5" font-size="10px" fill="#FFFFFF" font-family="Helvetica Neue, Helvetica, Arial, sans-serif"> chapter</text></g><g class="node" aria-label="graph-node9905" transform="translate(356.4823216964031,-3.42389717551341)"><circle class="b-outline" cx="0" cy="0" r="25" fill="#F79767" stroke="#f36924" stroke-width="2px"/><text class="caption" text-anchor="middle" pointer-events="none" x="0" y="5" font-size="10px" fill="#FFFFFF" font-family="Helvetica Neue, Helvetica, Arial, sans-serif"> chapter</text></g><g class="node" aria-label="graph-node9849" transform="translate(324.7503745368588,-97.50070055339395)"><circle class="b-outline" cx="0" cy="0" r="25" fill="#F79767" stroke="#f36924" stroke-width="2px"/><text class="caption" text-anchor="middle" pointer-events="none" x="0" y="5" font-size="10px" fill="#FFFFFF" font-family="Helvetica Neue, Helvetica, Arial, sans-serif"> chapter</text></g><g class="node" aria-label="graph-node9485" transform="translate(249.1817469254604,-162.43491717605326)"><circle class="b-outline" cx="0" cy="0" r="25" fill="#F79767" stroke="#f36924" stroke-width="2px"/><text class="caption" text-anchor="middle" pointer-events="none" x="0" y="5" font-size="10px" fill="#FFFFFF" font-family="Helvetica Neue, Helvetica, Arial, sans-serif"> chapter</text></g><g class="node" aria-label="graph-node7241" transform="translate(103.13505968800277,-78.58689607400804)"><circle class="b-outline" cx="0" cy="0" r="25" fill="#F79767" stroke="#f36924" stroke-width="2px"/><text class="caption" text-anchor="middle" pointer-events="none" x="0" y="5" font-size="10px" fill="#FFFFFF" font-family="Helvetica Neue, Helvetica, Arial, sans-serif"> chapter</text></g><g class="node" aria-label="graph-node8721" transform="translate(265.52350794669377,36.360697130425756)"><circle class="b-outline" cx="0" cy="0" r="25" fill="#F79767" stroke="#f36924" stroke-width="2px"/><text class="caption" text-anchor="middle" pointer-events="none" x="0" y="5" font-size="10px" fill="#FFFFFF" font-family="Helvetica Neue, Helvetica, Arial, sans-serif"> chapter</text></g><g class="node" aria-label="graph-node7113" transform="translate(93.5537422468839,-342.4609260868717)"><circle class="b-outline" cx="0" cy="0" r="25" fill="#F79767" stroke="#f36924" stroke-width="2px"/><text class="caption" text-anchor="middle" pointer-events="none" x="0" y="5" font-size="10px" fill="#FFFFFF" font-family="Helvetica Neue, Helvetica, Arial, sans-serif"> chapter</text></g><g class="node" aria-label="graph-node7021" transform="translate(-86.00941481319114,-398.04350364046337)"><circle class="b-outline" cx="0" cy="0" r="25" fill="#F79767" stroke="#f36924" stroke-width="2px"/><text class="caption" text-anchor="middle" pointer-events="none" x="0" y="5" font-size="10px" fill="#FFFFFF" font-family="Helvetica Neue, Helvetica, Arial, sans-serif"> chapter</text></g><g class="node" aria-label="graph-node6845" transform="translate(13.566813443241577,-401.8649473205978)"><circle class="b-outline" cx="0" cy="0" r="25" fill="#F79767" stroke="#f36924" stroke-width="2px"/><text class="caption" text-anchor="middle" pointer-events="none" x="0" y="5" font-size="10px" fill="#FFFFFF" font-family="Helvetica Neue, Helvetica, Arial, sans-serif"> chapter</text></g><g class="node" aria-label="graph-node6505" transform="translate(-87.2813757745878,-63.59368419482903)"><circle class="b-outline" cx="0" cy="0" r="25" fill="#F79767" stroke="#f36924" stroke-width="2px"/><text class="caption" text-anchor="middle" pointer-events="none" x="0" y="5" font-size="10px" fill="#FFFFFF" font-family="Helvetica Neue, Helvetica, Arial, sans-serif"> chapter</text></g><g class="node" aria-label="graph-node6501" transform="translate(-335.0507270614042,-204.36719335982332)"><circle class="b-outline" cx="0" cy="0" r="25" fill="#F79767" stroke="#f36924" stroke-width="2px"/><text class="caption" text-anchor="middle" pointer-events="none" x="0" y="5" font-size="10px" fill="#FFFFFF" font-family="Helvetica Neue, Helvetica, Arial, sans-serif"> chapter</text></g><g class="node" aria-label="graph-node4877" transform="translate(-42.720422156388544,-152.72557212446802)"><circle class="b-outline" cx="0" cy="0" r="25" fill="#F79767" stroke="#f36924" stroke-width="2px"/><text class="caption" text-anchor="middle" pointer-events="none" x="0" y="5" font-size="10px" fill="#FFFFFF" font-family="Helvetica Neue, Helvetica, Arial, sans-serif"> chapter</text></g><g class="node" aria-label="graph-node4397" transform="translate(-184.60376631241766,-315.08386622086545)"><circle class="b-outline" cx="0" cy="0" r="25" fill="#F79767" stroke="#f36924" stroke-width="2px"/><text class="caption" text-anchor="middle" pointer-events="none" x="0" y="5" font-size="10px" fill="#FFFFFF" font-family="Helvetica Neue, Helvetica, Arial, sans-serif"> chapter</text></g><g class="node" aria-label="graph-node3161" transform="translate(-280.4574959238849,-287.7190529537704)"><circle class="b-outline" cx="0" cy="0" r="25" fill="#F79767" stroke="#f36924" stroke-width="2px"/><text class="caption" text-anchor="middle" pointer-events="none" x="0" y="5" font-size="10px" fill="#FFFFFF" font-family="Helvetica Neue, Helvetica, Arial, sans-serif"> chapter</text></g><g class="node" aria-label="graph-node2357" transform="translate(-296.987725126196,270.92474323014267)"><circle class="b-outline" cx="0" cy="0" r="25" fill="#F79767" stroke="#f36924" stroke-width="2px"/><text class="caption" text-anchor="middle" pointer-events="none" x="0" y="5" font-size="10px" fill="#FFFFFF" font-family="Helvetica Neue, Helvetica, Arial, sans-serif"> chapter</text></g><g class="node" aria-label="graph-node2225" transform="translate(-252.8451528457124,6.91689347220075)"><circle class="b-outline" cx="0" cy="0" r="25" fill="#F79767" stroke="#f36924" stroke-width="2px"/><text class="caption" text-anchor="middle" pointer-events="none" x="0" y="5" font-size="10px" fill="#FFFFFF" font-family="Helvetica Neue, Helvetica, Arial, sans-serif"> chapter</text></g><g class="node" aria-label="graph-node2165" transform="translate(-348.9585314416665,-22.002607943083415)"><circle class="b-outline" cx="0" cy="0" r="25" fill="#F79767" stroke="#f36924" stroke-width="2px"/><text class="caption" text-anchor="middle" pointer-events="none" x="0" y="5" font-size="10px" fill="#FFFFFF" font-family="Helvetica Neue, Helvetica, Arial, sans-serif"> chapter</text></g><g class="node" aria-label="graph-node1861" transform="translate(-486.59625283371287,102.39082374046059)"><circle class="b-outline" cx="0" cy="0" r="25" fill="#F79767" stroke="#f36924" stroke-width="2px"/><text class="caption" text-anchor="middle" pointer-events="none" x="0" y="5" font-size="10px" fill="#FFFFFF" font-family="Helvetica Neue, Helvetica, Arial, sans-serif"> chapter</text></g><g class="node" aria-label="graph-node1769" transform="translate(-441.59657995271743,13.92670418007582)"><circle class="b-outline" cx="0" cy="0" r="25" fill="#F79767" stroke="#f36924" stroke-width="2px"/><text class="caption" text-anchor="middle" pointer-events="none" x="0" y="5" font-size="10px" fill="#FFFFFF" font-family="Helvetica Neue, Helvetica, Arial, sans-serif"> chapter</text></g><g class="node" aria-label="graph-node1245" transform="translate(-469.4339782649166,199.9007286681782)"><circle class="b-outline" cx="0" cy="0" r="25" fill="#F79767" stroke="#f36924" stroke-width="2px"/><text class="caption" text-anchor="middle" pointer-events="none" x="0" y="5" font-size="10px" fill="#FFFFFF" font-family="Helvetica Neue, Helvetica, Arial, sans-serif"> chapter</text></g><g class="node" aria-label="graph-node1197" transform="translate(-396.3737317426161,267.5742568875163)"><circle class="b-outline" cx="0" cy="0" r="25" fill="#F79767" stroke="#f36924" stroke-width="2px"/><text class="caption" text-anchor="middle" pointer-events="none" x="0" y="5" font-size="10px" fill="#FFFFFF" font-family="Helvetica Neue, Helvetica, Arial, sans-serif"> chapter</text></g><g class="node" aria-label="graph-node10121" transform="translate(16.85601158654,370.77322773224677)"><circle class="b-outline" cx="0" cy="0" r="25" fill="#F79767" stroke="#f36924" stroke-width="2px"/><text class="caption" text-anchor="middle" pointer-events="none" x="0" y="5" font-size="10px" fill="#FFFFFF" font-family="Helvetica Neue, Helvetica, Arial, sans-serif"> title</text></g><g class="node" aria-label="graph-node9481" transform="translate(184.78120650207467,-21.812183821772294)"><circle class="b-outline" cx="0" cy="0" r="25" fill="#F79767" stroke="#f36924" stroke-width="2px"/><text class="caption" text-anchor="middle" pointer-events="none" x="0" y="5" font-size="10px" fill="#FFFFFF" font-family="Helvetica Neue, Helvetica, Arial, sans-serif"> title</text></g><g class="node" aria-label="graph-node7237" transform="translate(112.26062941493707,71.36191473955573)"><circle class="b-outline" cx="0" cy="0" r="25" fill="#F79767" stroke="#f36924" stroke-width="2px"/><text class="caption" text-anchor="middle" pointer-events="none" x="0" y="5" font-size="10px" fill="#FFFFFF" font-family="Helvetica Neue, Helvetica, Arial, sans-serif"> title</text></g><g class="node" aria-label="graph-node6841" transform="translate(-28.589017338852727,-251.12171901972005)"><circle class="b-outline" cx="0" cy="0" r="25" fill="#F79767" stroke="#f36924" stroke-width="2px"/><text class="caption" text-anchor="middle" pointer-events="none" x="0" y="5" font-size="10px" fill="#FFFFFF" font-family="Helvetica Neue, Helvetica, Arial, sans-serif"> title</text></g><g class="node" aria-label="graph-node3157" transform="translate(-189.05396566541464,-162.18502642204714)"><circle class="b-outline" cx="0" cy="0" r="25" fill="#F79767" stroke="#f36924" stroke-width="2px"/><text class="caption" text-anchor="middle" pointer-events="none" x="0" y="5" font-size="10px" fill="#FFFFFF" font-family="Helvetica Neue, Helvetica, Arial, sans-serif"> title</text></g><g class="node" aria-label="graph-node1193" transform="translate(-328.04217246523814,126.10004864735636)"><circle class="b-outline" cx="0" cy="0" r="25" fill="#F79767" stroke="#f36924" stroke-width="2px"/><text class="caption" text-anchor="middle" pointer-events="none" x="0" y="5" font-size="10px" fill="#FFFFFF" font-family="Helvetica Neue, Helvetica, Arial, sans-serif"> title</text></g></g></svg>