<svg xmlns="http://www.w3.org/2000/svg" width="713.6517333984375" height="475.568603515625" viewBox="-396.6974792480469 -100.17190551757812 713.6517333984375 475.568603515625"><title>Neo4j Graph Visualization</title><desc>Created using Neo4j (http://www.neo4j.com/)</desc><g class="layer relationships"><g class="relationship" transform="translate(-66.53654370993007 29.38794336648408) rotate(304.97325302285867)"><path class="b-outline" fill="#A5ABB6" stroke="none" d="M 25 0.5 L 32.409232611560235 0.5 L 32.409232611560235 -0.5 L 25 -0.5 Z M 83.31157636156024 0.5 L 90.72080897312047 0.5 L 90.72080897312047 3.5 L 97.72080897312047 0 L 90.72080897312047 -3.5 L 90.72080897312047 -0.5 L 83.31157636156024 -0.5 Z"/><text text-anchor="middle" pointer-events="none" font-size="8px" fill="#000000" x="57.860404486560235" y="3" font-family="Helvetica Neue, Helvetica, Arial, sans-serif">HAS_CHILD</text></g><g class="relationship" transform="translate(-66.53654370993007 29.38794336648408) rotate(412.23463562876833)"><path class="b-outline" fill="#A5ABB6" stroke="none" d="M 25 0.5 L 25.367431195489146 0.5 L 25.367431195489146 -0.5 L 25 -0.5 Z M 60.26586869548915 0.5 L 60.63329989097829 0.5 L 60.63329989097829 3.5 L 67.6332998909783 0 L 60.63329989097829 -3.5 L 60.63329989097829 -0.5 L 60.26586869548915 -0.5 Z"/><text text-anchor="middle" pointer-events="none" font-size="8px" fill="#000000" x="42.81664994548915" y="3" font-family="Helvetica Neue, Helvetica, Arial, sans-serif">HAS_…</text></g><g class="relationship" transform="translate(-66.53654370993007 29.38794336648408) rotate(208.44651145757445)"><path class="b-outline" fill="#A5ABB6" stroke="none" d="M 25 0.5 L 35.84265263462814 0.5 L 35.84265263462814 -0.5 L 25 -0.5 Z M 86.74499638462814 0.5 L 97.58764901925628 0.5 L 97.58764901925628 3.5 L 104.58764901925628 0 L 97.58764901925628 -3.5 L 97.58764901925628 -0.5 L 86.74499638462814 -0.5 Z"/><text text-anchor="middle" pointer-events="none" font-size="8px" fill="#000000" x="61.29382450962814" y="3" transform="rotate(180 61.29382450962814 0)" font-family="Helvetica Neue, Helvetica, Arial, sans-serif">HAS_CHILD</text></g><g class="relationship" transform="translate(-66.53654370993007 29.38794336648408) rotate(536.3876147997016)"><path class="b-outline" fill="#A5ABB6" stroke="none" d="M 25 0.5 L 36.038094330969926 0.5 L 36.038094330969926 -0.5 L 25 -0.5 Z M 86.94043808096993 0.5 L 97.97853241193985 0.5 L 97.97853241193985 3.5 L 104.97853241193985 0 L 97.97853241193985 -3.5 L 97.97853241193985 -0.5 L 86.94043808096993 -0.5 Z"/><text text-anchor="middle" pointer-events="none" font-size="8px" fill="#000000" x="61.489266205969926" y="3" transform="rotate(180 61.489266205969926 0)" font-family="Helvetica Neue, Helvetica, Arial, sans-serif">HAS_CHILD</text></g><g class="relationship" transform="translate(-66.53654370993007 29.38794336648408) rotate(353.466885675983)"><path class="b-outline" fill="#A5ABB6" stroke="none" d="M 25 0.5 L 25.574420041257483 0.5 L 25.574420041257483 -0.5 L 25 -0.5 Z M 74.25020129125748 0.5 L 74.82462133251497 0.5 L 74.82462133251497 3.5 L 81.82462133251497 0 L 74.82462133251497 -3.5 L 74.82462133251497 -0.5 L 74.25020129125748 -0.5 Z"/><text text-anchor="middle" pointer-events="none" font-size="8px" fill="#000000" x="49.91231066625748" y="3" font-family="Helvetica Neue, Helvetica, Arial, sans-serif">HAS_CHI…</text></g><g class="relationship" transform="translate(-66.53654370993007 29.38794336648408) rotate(476.29236304758507)"><path class="b-outline" fill="#A5ABB6" stroke="none" d="M 25 0.5 L 141.84145451815962 0.5 L 141.84145451815962 -0.5 L 25 -0.5 Z M 204.74770451815962 0.5 L 321.58915903631924 0.5 L 321.58915903631924 3.5 L 328.58915903631924 0 L 321.58915903631924 -3.5 L 321.58915903631924 -0.5 L 204.74770451815962 -0.5 Z"/><text text-anchor="middle" pointer-events="none" font-size="8px" fill="#000000" x="173.29457951815962" y="3" transform="rotate(180 173.29457951815962 0)" font-family="Helvetica Neue, Helvetica, Arial, sans-serif">HAS_VERSION</text></g><g class="relationship" transform="translate(-223.15946077146404 346.3967054522462) rotate(330.6295619548914)"><path class="b-outline" fill="#A5ABB6" stroke="none" d="M 25 0.5 L 259.0381080924044 0.5 L 259.0381080924044 -0.5 L 25 -0.5 Z M 320.4599830924044 0.5 L 554.4980911848088 0.5 L 554.4980911848088 3.5 L 561.4980911848088 0 L 554.4980911848088 -3.5 L 554.4980911848088 -0.5 L 320.4599830924044 -0.5 Z"/><text text-anchor="middle" pointer-events="none" font-size="8px" fill="#000000" x="289.7490455924044" y="3" font-family="Helvetica Neue, Helvetica, Arial, sans-serif">AGGREGATES</text></g><g class="relationship" transform="translate(-223.15946077146404 346.3967054522462) rotate(342.5918091122742)"><path class="b-outline" fill="#A5ABB6" stroke="none" d="M 25 0.5 L 139.36405022466607 0.5 L 139.36405022466607 -0.5 L 25 -0.5 Z M 200.78592522466607 0.5 L 315.14997544933215 0.5 L 315.14997544933215 3.5 L 322.14997544933215 0 L 315.14997544933215 -3.5 L 315.14997544933215 -0.5 L 200.78592522466607 -0.5 Z"/><text text-anchor="middle" pointer-events="none" font-size="8px" fill="#000000" x="170.07498772466607" y="3" font-family="Helvetica Neue, Helvetica, Arial, sans-serif">AGGREGATES</text></g><g class="relationship" transform="translate(-223.15946077146404 346.3967054522462) rotate(247.3013269674924)"><path class="b-outline" fill="#A5ABB6" stroke="none" d="M 25 0.5 L 153.0704270803346 0.5 L 153.0704270803346 -0.5 L 25 -0.5 Z M 214.4923020803346 0.5 L 342.5627291606692 0.5 L 342.5627291606692 3.5 L 349.5627291606692 0 L 342.5627291606692 -3.5 L 342.5627291606692 -0.5 L 214.4923020803346 -0.5 Z"/><text text-anchor="middle" pointer-events="none" font-size="8px" fill="#000000" x="183.7813645803346" y="3" transform="rotate(180 183.7813645803346 0)" font-family="Helvetica Neue, Helvetica, Arial, sans-serif">AGGREGATES</text></g><g class="relationship" transform="translate(-223.15946077146404 346.3967054522462) rotate(260.224422477138)"><path class="b-outline" fill="#A5ABB6" stroke="none" d="M 25 0.5 L 93.04069371281695 0.5 L 93.04069371281695 -0.5 L 25 -0.5 Z M 154.46256871281696 0.5 L 222.5032624256339 0.5 L 222.5032624256339 3.5 L 229.5032624256339 0 L 222.5032624256339 -3.5 L 222.5032624256339 -0.5 L 154.46256871281696 -0.5 Z"/><text text-anchor="middle" pointer-events="none" font-size="8px" fill="#000000" x="123.75163121281695" y="3" transform="rotate(180 123.75163121281695 0)" font-family="Helvetica Neue, Helvetica, Arial, sans-serif">AGGREGATES</text></g><g class="relationship" transform="translate(-223.15946077146404 346.3967054522462) rotate(321.9082469739984)"><path class="b-outline" fill="#A5ABB6" stroke="none" d="M 25 0.5 L 199.3354181289538 0.5 L 199.3354181289538 -0.5 L 25 -0.5 Z M 260.7572931289538 0.5 L 435.0927112579076 0.5 L 435.0927112579076 3.5 L 442.0927112579076 0 L 435.0927112579076 -3.5 L 435.0927112579076 -0.5 L 260.7572931289538 -0.5 Z"/><text text-anchor="middle" pointer-events="none" font-size="8px" fill="#000000" x="230.0463556289538" y="3" font-family="Helvetica Neue, Helvetica, Arial, sans-serif">AGGREGATES</text></g><g class="relationship" transform="translate(3.806284600947606 -71.17190677383539) rotate(384.5708327656562)"><path class="b-outline" fill="#A5ABB6" stroke="none" d="M 25 0.5 L 121.26691387887877 0.5 L 121.26691387887877 -0.5 L 25 -0.5 Z M 184.17316387887877 0.5 L 280.44007775775754 0.5 L 280.44007775775754 3.5 L 287.44007775775754 0 L 280.44007775775754 -3.5 L 280.44007775775754 -0.5 L 184.17316387887877 -0.5 Z"/><text text-anchor="middle" pointer-events="none" font-size="8px" fill="#000000" x="152.72003887887877" y="3" font-family="Helvetica Neue, Helvetica, Arial, sans-serif">HAS_VERSION</text></g><g class="relationship" transform="translate(-9.80519777194744 102.61691739150277) rotate(409.88288340813153)"><path class="b-outline" fill="#A5ABB6" stroke="none" d="M 25 0.5 L 56.53055051061931 0.5 L 56.53055051061931 -0.5 L 25 -0.5 Z M 119.4368005106193 0.5 L 150.9673510212386 0.5 L 150.9673510212386 3.5 L 157.9673510212386 0 L 150.9673510212386 -3.5 L 150.9673510212386 -0.5 L 119.4368005106193 -0.5 Z"/><text text-anchor="middle" pointer-events="none" font-size="8px" fill="#000000" x="87.9836755106193" y="3" font-family="Helvetica Neue, Helvetica, Arial, sans-serif">HAS_VERSION</text></g><g class="relationship" transform="translate(-180.47806271670515 -32.339595259048885) rotate(529.9487392869025)"><path class="b-outline" fill="#A5ABB6" stroke="none" d="M 25 0.5 L 60.11569895002903 0.5 L 60.11569895002903 -0.5 L 25 -0.5 Z M 123.02194895002903 0.5 L 158.13764790005806 0.5 L 158.13764790005806 3.5 L 165.13764790005806 0 L 158.13764790005806 -3.5 L 158.13764790005806 -0.5 L 123.02194895002903 -0.5 Z"/><text text-anchor="middle" pointer-events="none" font-size="8px" fill="#000000" x="91.56882395002903" y="3" transform="rotate(180 91.56882395002903 0)" font-family="Helvetica Neue, Helvetica, Arial, sans-serif">HAS_VERSION</text></g><g class="relationship" transform="translate(-196.2568259551755 37.57740379898914) rotate(500.3963665478997)"><path class="b-outline" fill="#A5ABB6" stroke="none" d="M 25 0.5 L 26.776414369401607 0.5 L 26.776414369401607 -0.5 L 25 -0.5 Z M 57.22563311940161 0.5 L 59.002047488803214 0.5 L 59.002047488803214 3.5 L 66.00204748880321 0 L 59.002047488803214 -3.5 L 59.002047488803214 -0.5 L 57.22563311940161 -0.5 Z"/><text text-anchor="middle" pointer-events="none" font-size="8px" fill="#000000" x="42.00102374440161" y="3" transform="rotate(180 42.00102374440161 0)" font-family="Helvetica Neue, Helvetica, Arial, sans-serif">HAS…</text></g><g class="relationship" transform="translate(39.59438667887835 17.233712101566) rotate(381.3569099315332)"><path class="b-outline" fill="#A5ABB6" stroke="none" d="M 25 0.5 L 27.121604405305916 0.5 L 27.121604405305916 -0.5 L 25 -0.5 Z M 78.46926065530592 0.5 L 80.59086506061183 0.5 L 80.59086506061183 3.5 L 87.59086506061183 0 L 80.59086506061183 -3.5 L 80.59086506061183 -0.5 L 78.46926065530592 -0.5 Z"/><text text-anchor="middle" pointer-events="none" font-size="8px" fill="#000000" x="52.795432530305916" y="3" font-family="Helvetica Neue, Helvetica, Arial, sans-serif">HAS_VER…</text></g></g><g class="layer nodes"><g class="node" aria-label="graph-node1" transform="translate(-66.53654370993007,29.38794336648408)"><circle class="b-outline" cx="0" cy="0" r="25" fill="#F79767" stroke="#f36924" stroke-width="2px"/><text class="caption" text-anchor="middle" pointer-events="none" x="0" y="5" font-size="10px" fill="#FFFFFF" font-family="Helvetica Neue, Helvetica, Arial, sans-serif"> title</text></g><g class="node" aria-label="graph-node2" transform="translate(-223.15946077146404,346.3967054522462)"><circle class="b-outline" cx="0" cy="0" r="25" fill="#57C7E3" stroke="#23b3d7" stroke-width="2px"/><text class="caption" text-anchor="middle" pointer-events="none" x="0" y="5" font-size="10px" fill="#2A2C34" font-family="Helvetica Neue, Helvetica, Arial, sans-serif"> tit_01</text></g><g class="node" aria-label="graph-node62" transform="translate(287.9542587258288,58.74626358735546)"><circle class="b-outline" cx="0" cy="0" r="25" fill="#57C7E3" stroke="#23b3d7" stroke-width="2px"/><text class="caption" text-anchor="middle" pointer-events="none" x="0" y="5" font-size="10px" fill="#2A2C34" font-family="Helvetica Neue, Helvetica, Arial, sans-serif"> tit_01_ar…</text></g><g class="node" aria-label="graph-node61" transform="translate(3.806284600947606,-71.17190677383539)"><circle class="b-outline" cx="0" cy="0" r="25" fill="#F79767" stroke="#f36924" stroke-width="2px"/><text class="caption" text-anchor="middle" pointer-events="none" x="0" y="5" font-size="10px" fill="#FFFFFF" font-family="Helvetica Neue, Helvetica, Arial, sans-serif"> article</text></g><g class="node" aria-label="graph-node42" transform="translate(108.09020170853516,242.53734592524677)"><circle class="b-outline" cx="0" cy="0" r="25" fill="#57C7E3" stroke="#23b3d7" stroke-width="2px"/><text class="caption" text-anchor="middle" pointer-events="none" x="0" y="5" font-size="10px" fill="#2A2C34" font-family="Helvetica Neue, Helvetica, Arial, sans-serif"> tit_01_ar…</text></g><g class="node" aria-label="graph-node41" transform="translate(-9.80519777194744,102.61691739150277)"><circle class="b-outline" cx="0" cy="0" r="25" fill="#F79767" stroke="#f36924" stroke-width="2px"/><text class="caption" text-anchor="middle" pointer-events="none" x="0" y="5" font-size="10px" fill="#FFFFFF" font-family="Helvetica Neue, Helvetica, Arial, sans-serif"> article</text></g><g class="node" aria-label="graph-node38" transform="translate(-367.6974782613546,0.8449733246515905)"><circle class="b-outline" cx="0" cy="0" r="25" fill="#57C7E3" stroke="#23b3d7" stroke-width="2px"/><text class="caption" text-anchor="middle" pointer-events="none" x="0" y="5" font-size="10px" fill="#2A2C34" font-family="Helvetica Neue, Helvetica, Arial, sans-serif"> tit_01_ar…</text></g><g class="node" aria-label="graph-node37" transform="translate(-180.47806271670515,-32.339595259048885)"><circle class="b-outline" cx="0" cy="0" r="25" fill="#F79767" stroke="#f36924" stroke-width="2px"/><text class="caption" text-anchor="middle" pointer-events="none" x="0" y="5" font-size="10px" fill="#FFFFFF" font-family="Helvetica Neue, Helvetica, Arial, sans-serif"> article</text></g><g class="node" aria-label="graph-node10" transform="translate(-266.3714299764637,95.58873846810664)"><circle class="b-outline" cx="0" cy="0" r="25" fill="#57C7E3" stroke="#23b3d7" stroke-width="2px"/><text class="caption" text-anchor="middle" pointer-events="none" x="0" y="5" font-size="10px" fill="#2A2C34" font-family="Helvetica Neue, Helvetica, Arial, sans-serif"> tit_01_ar…</text></g><g class="node" aria-label="graph-node9" transform="translate(-196.2568259551755,37.57740379898914)"><circle class="b-outline" cx="0" cy="0" r="25" fill="#F79767" stroke="#f36924" stroke-width="2px"/><text class="caption" text-anchor="middle" pointer-events="none" x="0" y="5" font-size="10px" fill="#FFFFFF" font-family="Helvetica Neue, Helvetica, Arial, sans-serif"> article</text></g><g class="node" aria-label="graph-node6" transform="translate(144.45363287793037,58.23665567472301)"><circle class="b-outline" cx="0" cy="0" r="25" fill="#57C7E3" stroke="#23b3d7" stroke-width="2px"/><text class="caption" text-anchor="middle" pointer-events="none" x="0" y="5" font-size="10px" fill="#2A2C34" font-family="Helvetica Neue, Helvetica, Arial, sans-serif"> tit_01_ar…</text></g><g class="node" aria-label="graph-node5" transform="translate(39.59438667887835,17.233712101566)"><circle class="b-outline" cx="0" cy="0" r="25" fill="#F79767" stroke="#f36924" stroke-width="2px"/><text class="caption" text-anchor="middle" pointer-events="none" x="0" y="5" font-size="10px" fill="#FFFFFF" font-family="Helvetica Neue, Helvetica, Arial, sans-serif"> article</text></g></g></svg>