<svg xmlns="http://www.w3.org/2000/svg" width="667.95263671875" height="635.73876953125" viewBox="-340.2266540527344 -296.3160400390625 667.95263671875 635.73876953125"><title>Neo4j Graph Visualization</title><desc>Created using Neo4j (http://www.neo4j.com/)</desc><g class="layer relationships"><g class="relationship" transform="translate(-7.581540693556671 43.01256777944689) rotate(492.8155596322026)"><path class="b-outline" fill="#A5ABB6" stroke="none" d="M 25 0.5 L 43.517205041936975 0.5 L 43.517205041936975 -0.5 L 25 -0.5 Z M 104.05236129193698 0.5 L 122.56956633387395 0.5 L 122.56956633387395 3.5 L 129.56956633387395 0 L 122.56956633387395 -3.5 L 122.56956633387395 -0.5 L 104.05236129193698 -0.5 Z"/><text text-anchor="middle" pointer-events="none" font-size="8px" fill="#000000" x="73.78478316693698" y="3" transform="rotate(180 73.78478316693698 0)" font-family="Helvetica Neue, Helvetica, Arial, sans-serif">RESULTED_IN</text></g><g class="relationship" transform="translate(-7.581540693556671 43.01256777944689) rotate(415.814184564014)"><path class="b-outline" fill="#A5ABB6" stroke="none" d="M 25 0.5 L 69.52849766281906 0.5 L 69.52849766281906 -0.5 L 25 -0.5 Z M 130.06365391281906 0.5 L 174.59215157563813 0.5 L 174.59215157563813 3.5 L 181.59215157563813 0 L 174.59215157563813 -3.5 L 174.59215157563813 -0.5 L 130.06365391281906 -0.5 Z"/><text text-anchor="middle" pointer-events="none" font-size="8px" fill="#000000" x="99.79607578781906" y="3" font-family="Helvetica Neue, Helvetica, Arial, sans-serif">RESULTED_IN</text></g><g class="relationship" transform="translate(-7.581540693556671 43.01256777944689) rotate(361.6764798768884)"><path class="b-outline" fill="#A5ABB6" stroke="none" d="M 25 0.5 L 46.49912328580167 0.5 L 46.49912328580167 -0.5 L 25 -0.5 Z M 107.03427953580167 0.5 L 128.53340282160335 0.5 L 128.53340282160335 3.5 L 135.53340282160335 0 L 128.53340282160335 -3.5 L 128.53340282160335 -0.5 L 107.03427953580167 -0.5 Z"/><text text-anchor="middle" pointer-events="none" font-size="8px" fill="#000000" x="76.76670141080167" y="3" font-family="Helvetica Neue, Helvetica, Arial, sans-serif">RESULTED_IN</text></g><g class="relationship" transform="translate(-7.581540693556671 43.01256777944689) rotate(313.7991796440253)"><path class="b-outline" fill="#A5ABB6" stroke="none" d="M 25 0.5 L 47.5184840997224 0.5 L 47.5184840997224 -0.5 L 25 -0.5 Z M 108.0536403497224 0.5 L 130.5721244494448 0.5 L 130.5721244494448 3.5 L 137.5721244494448 0 L 130.5721244494448 -3.5 L 130.5721244494448 -0.5 L 108.0536403497224 -0.5 Z"/><text text-anchor="middle" pointer-events="none" font-size="8px" fill="#000000" x="77.7860622247224" y="3" font-family="Helvetica Neue, Helvetica, Arial, sans-serif">RESULTED_IN</text></g><g class="relationship" transform="translate(-7.581540693556671 43.01256777944689) rotate(267.68395672797095)"><path class="b-outline" fill="#A5ABB6" stroke="none" d="M 25 0.5 L 47.0542968968367 0.5 L 47.0542968968367 -0.5 L 25 -0.5 Z M 107.5894531468367 0.5 L 129.6437500436734 0.5 L 129.6437500436734 3.5 L 136.6437500436734 0 L 129.6437500436734 -3.5 L 129.6437500436734 -0.5 L 107.5894531468367 -0.5 Z"/><text text-anchor="middle" pointer-events="none" font-size="8px" fill="#000000" x="77.3218750218367" y="3" transform="rotate(180 77.3218750218367 0)" font-family="Helvetica Neue, Helvetica, Arial, sans-serif">RESULTED_IN</text></g><g class="relationship" transform="translate(-7.581540693556671 43.01256777944689) rotate(220.52725578617708)"><path class="b-outline" fill="#A5ABB6" stroke="none" d="M 25 0.5 L 46.70506298924454 0.5 L 46.70506298924454 -0.5 L 25 -0.5 Z M 107.24021923924454 0.5 L 128.94528222848908 0.5 L 128.94528222848908 3.5 L 135.94528222848908 0 L 128.94528222848908 -3.5 L 128.94528222848908 -0.5 L 107.24021923924454 -0.5 Z"/><text text-anchor="middle" pointer-events="none" font-size="8px" fill="#000000" x="76.97264111424454" y="3" transform="rotate(180 76.97264111424454 0)" font-family="Helvetica Neue, Helvetica, Arial, sans-serif">RESULTED_IN</text></g><g class="relationship" transform="translate(-7.581540693556671 43.01256777944689) rotate(531.9357780788571)"><path class="b-outline" fill="#A5ABB6" stroke="none" d="M 25 0.5 L 48.10102427593205 0.5 L 48.10102427593205 -0.5 L 25 -0.5 Z M 108.63618052593205 0.5 L 131.7372048018641 0.5 L 131.7372048018641 3.5 L 138.7372048018641 0 L 131.7372048018641 -3.5 L 131.7372048018641 -0.5 L 108.63618052593205 -0.5 Z"/><text text-anchor="middle" pointer-events="none" font-size="8px" fill="#000000" x="78.36860240093205" y="3" transform="rotate(180 78.36860240093205 0)" font-family="Helvetica Neue, Helvetica, Arial, sans-serif">RESULTED_IN</text></g><g class="relationship" transform="translate(-16.616114677881427 252.19507836759095) rotate(224.93475130904505)"><path class="b-outline" fill="#A5ABB6" stroke="none" d="M 25 0.5 L 32.86407970163161 0.5 L 32.86407970163161 -0.5 L 25 -0.5 Z M 95.77032970163161 0.5 L 103.63440940326322 0.5 L 103.63440940326322 3.5 L 110.63440940326322 0 L 103.63440940326322 -3.5 L 103.63440940326322 -0.5 L 95.77032970163161 -0.5 Z"/><text text-anchor="middle" pointer-events="none" font-size="8px" fill="#000000" x="64.31720470163161" y="3" transform="rotate(180 64.31720470163161 0)" font-family="Helvetica Neue, Helvetica, Arial, sans-serif">HAS_VERSION</text></g><g class="relationship" transform="translate(213.77886136612588 310.42277507398427) rotate(222.51216447919296)"><path class="b-outline" fill="#A5ABB6" stroke="none" d="M 25 0.5 L 36.45906667875472 0.5 L 36.45906667875472 -0.5 L 25 -0.5 Z M 99.36531667875472 0.5 L 110.82438335750945 0.5 L 110.82438335750945 3.5 L 117.82438335750945 0 L 110.82438335750945 -3.5 L 110.82438335750945 -0.5 L 99.36531667875472 -0.5 Z"/><text text-anchor="middle" pointer-events="none" font-size="8px" fill="#000000" x="67.91219167875472" y="3" transform="rotate(180 67.91219167875472 0)" font-family="Helvetica Neue, Helvetica, Arial, sans-serif">HAS_VERSION</text></g><g class="relationship" transform="translate(298.7260324142315 25.44302953128976) rotate(531.3195812036677)"><path class="b-outline" fill="#A5ABB6" stroke="none" d="M 25 0.5 L 38.81327346534685 0.5 L 38.81327346534685 -0.5 L 25 -0.5 Z M 101.71952346534685 0.5 L 115.5327969306937 0.5 L 115.5327969306937 3.5 L 122.5327969306937 0 L 115.5327969306937 -3.5 L 115.5327969306937 -0.5 L 101.71952346534685 -0.5 Z"/><text text-anchor="middle" pointer-events="none" font-size="8px" fill="#000000" x="70.26639846534685" y="3" transform="rotate(180 70.26639846534685 0)" font-family="Helvetica Neue, Helvetica, Arial, sans-serif">HAS_VERSION</text></g><g class="relationship" transform="translate(197.86757159068378 -190.58125620685215) rotate(488.637055038537)"><path class="b-outline" fill="#A5ABB6" stroke="none" d="M 25 0.5 L 39.46219638995875 0.5 L 39.46219638995875 -0.5 L 25 -0.5 Z M 102.36844638995875 0.5 L 116.8306427799175 0.5 L 116.8306427799175 3.5 L 123.8306427799175 0 L 116.8306427799175 -3.5 L 116.8306427799175 -0.5 L 102.36844638995875 -0.5 Z"/><text text-anchor="middle" pointer-events="none" font-size="8px" fill="#000000" x="70.91532138995875" y="3" transform="rotate(180 70.91532138995875 0)" font-family="Helvetica Neue, Helvetica, Arial, sans-serif">HAS_VERSION</text></g><g class="relationship" transform="translate(-23.418105149417684 -267.31604953481326) rotate(446.42242717038204)"><path class="b-outline" fill="#A5ABB6" stroke="none" d="M 25 0.5 L 39.600618615376376 0.5 L 39.600618615376376 -0.5 L 25 -0.5 Z M 102.50686861537638 0.5 L 117.10748723075275 0.5 L 117.10748723075275 3.5 L 124.10748723075275 0 L 117.10748723075275 -3.5 L 117.10748723075275 -0.5 L 102.50686861537638 -0.5 Z"/><text text-anchor="middle" pointer-events="none" font-size="8px" fill="#000000" x="71.05374361537638" y="3" font-family="Helvetica Neue, Helvetica, Arial, sans-serif">HAS_VERSION</text></g><g class="relationship" transform="translate(-238.88446457017744 -162.36527679828498) rotate(402.7682016091884)"><path class="b-outline" fill="#A5ABB6" stroke="none" d="M 25 0.5 L 39.26557406839417 0.5 L 39.26557406839417 -0.5 L 25 -0.5 Z M 102.17182406839417 0.5 L 116.43739813678835 0.5 L 116.43739813678835 3.5 L 123.43739813678835 0 L 116.43739813678835 -3.5 L 116.43739813678835 -0.5 L 102.17182406839417 -0.5 Z"/><text text-anchor="middle" pointer-events="none" font-size="8px" fill="#000000" x="70.71869906839417" y="3" font-family="Helvetica Neue, Helvetica, Arial, sans-serif">HAS_VERSION</text></g><g class="relationship" transform="translate(-311.2266563122657 119.1426082720912) rotate(339.41277783684654)"><path class="b-outline" fill="#A5ABB6" stroke="none" d="M 25 0.5 L 40.63778020348339 0.5 L 40.63778020348339 -0.5 L 25 -0.5 Z M 103.54403020348339 0.5 L 119.18181040696678 0.5 L 119.18181040696678 3.5 L 126.18181040696678 0 L 119.18181040696678 -3.5 L 119.18181040696678 -0.5 L 103.54403020348339 -0.5 Z"/><text text-anchor="middle" pointer-events="none" font-size="8px" fill="#000000" x="72.09090520348339" y="3" font-family="Helvetica Neue, Helvetica, Arial, sans-serif">HAS_VERSION</text></g></g><g class="layer nodes"><g class="node" aria-label="graph-node15573" transform="translate(-7.581540693556671,43.01256777944689)"><circle class="b-outline" cx="0" cy="0" r="25" fill="#D9C8AE" stroke="#c0a378" stroke-width="2px"/><text class="caption" text-anchor="middle" pointer-events="none" x="0" y="0" font-size="10px" fill="#2A2C34" font-family="Helvetica Neue, Helvetica, Arial, sans-serif"> Emenda</text><text class="caption" text-anchor="middle" pointer-events="none" x="0" y="10" font-size="10px" fill="#2A2C34" font-family="Helvetica Neue, Helvetica, Arial, sans-serif"> Consti…</text></g><g class="node" aria-label="graph-node15592" transform="translate(-112.63328358831333,156.39635035621492)"><circle class="b-outline" cx="0" cy="0" r="25" fill="#57C7E3" stroke="#23b3d7" stroke-width="2px"/><text class="caption" text-anchor="middle" pointer-events="none" x="0" y="5" font-size="10px" fill="#2A2C34" font-family="Helvetica Neue, Helvetica, Arial, sans-serif"> tit_09_ar…</text></g><g class="node" aria-label="graph-node12665" transform="translate(-16.616114677881427,252.19507836759095)"><circle class="b-outline" cx="0" cy="0" r="25" fill="#F79767" stroke="#f36924" stroke-width="2px"/><text class="caption" text-anchor="middle" pointer-events="none" x="0" y="5" font-size="10px" fill="#FFFFFF" font-family="Helvetica Neue, Helvetica, Arial, sans-serif"> article</text></g><g class="node" aria-label="graph-node15589" transform="translate(108.49816871863106,213.909665927524)"><circle class="b-outline" cx="0" cy="0" r="25" fill="#57C7E3" stroke="#23b3d7" stroke-width="2px"/><text class="caption" text-anchor="middle" pointer-events="none" x="0" y="5" font-size="10px" fill="#2A2C34" font-family="Helvetica Neue, Helvetica, Arial, sans-serif"> tit_09_ar…</text></g><g class="node" aria-label="graph-node12813" transform="translate(213.77886136612588,310.42277507398427)"><circle class="b-outline" cx="0" cy="0" r="25" fill="#F79767" stroke="#f36924" stroke-width="2px"/><text class="caption" text-anchor="middle" pointer-events="none" x="0" y="5" font-size="10px" fill="#FFFFFF" font-family="Helvetica Neue, Helvetica, Arial, sans-serif"> article</text></g><g class="node" aria-label="graph-node15586" transform="translate(152.8831464469728,47.709119958989106)"><circle class="b-outline" cx="0" cy="0" r="25" fill="#57C7E3" stroke="#23b3d7" stroke-width="2px"/><text class="caption" text-anchor="middle" pointer-events="none" x="0" y="5" font-size="10px" fill="#2A2C34" font-family="Helvetica Neue, Helvetica, Arial, sans-serif"> tit_09_ar…</text></g><g class="node" aria-label="graph-node12209" transform="translate(298.7260324142315,25.44302953128976)"><circle class="b-outline" cx="0" cy="0" r="25" fill="#F79767" stroke="#f36924" stroke-width="2px"/><text class="caption" text-anchor="middle" pointer-events="none" x="0" y="5" font-size="10px" fill="#FFFFFF" font-family="Helvetica Neue, Helvetica, Arial, sans-serif"> article</text></g><g class="node" aria-label="graph-node15583" transform="translate(104.93996545761077,-74.32713693075999)"><circle class="b-outline" cx="0" cy="0" r="25" fill="#57C7E3" stroke="#23b3d7" stroke-width="2px"/><text class="caption" text-anchor="middle" pointer-events="none" x="0" y="5" font-size="10px" fill="#2A2C34" font-family="Helvetica Neue, Helvetica, Arial, sans-serif"> tit_09_ar…</text></g><g class="node" aria-label="graph-node12225" transform="translate(197.86757159068378,-190.58125620685215)"><circle class="b-outline" cx="0" cy="0" r="25" fill="#F79767" stroke="#f36924" stroke-width="2px"/><text class="caption" text-anchor="middle" pointer-events="none" x="0" y="5" font-size="10px" fill="#FFFFFF" font-family="Helvetica Neue, Helvetica, Arial, sans-serif"> article</text></g><g class="node" aria-label="graph-node15580" transform="translate(-14.113818946868872,-118.49913851146835)"><circle class="b-outline" cx="0" cy="0" r="25" fill="#57C7E3" stroke="#23b3d7" stroke-width="2px"/><text class="caption" text-anchor="middle" pointer-events="none" x="0" y="5" font-size="10px" fill="#2A2C34" font-family="Helvetica Neue, Helvetica, Arial, sans-serif"> tit_09_ar…</text></g><g class="node" aria-label="graph-node12633" transform="translate(-23.418105149417684,-267.31604953481326)"><circle class="b-outline" cx="0" cy="0" r="25" fill="#F79767" stroke="#f36924" stroke-width="2px"/><text class="caption" text-anchor="middle" pointer-events="none" x="0" y="5" font-size="10px" fill="#FFFFFF" font-family="Helvetica Neue, Helvetica, Arial, sans-serif"> article</text></g><g class="node" aria-label="graph-node15577" transform="translate(-129.91555642675647,-61.57123816677613)"><circle class="b-outline" cx="0" cy="0" r="25" fill="#57C7E3" stroke="#23b3d7" stroke-width="2px"/><text class="caption" text-anchor="middle" pointer-events="none" x="0" y="5" font-size="10px" fill="#2A2C34" font-family="Helvetica Neue, Helvetica, Arial, sans-serif"> tit_09_ar…</text></g><g class="node" aria-label="graph-node13389" transform="translate(-238.88446457017744,-162.36527679828498)"><circle class="b-outline" cx="0" cy="0" r="25" fill="#F79767" stroke="#f36924" stroke-width="2px"/><text class="caption" text-anchor="middle" pointer-events="none" x="0" y="5" font-size="10px" fill="#FFFFFF" font-family="Helvetica Neue, Helvetica, Arial, sans-serif"> article</text></g><g class="node" aria-label="graph-node15574" transform="translate(-169.69962192590398,65.9821122649089)"><circle class="b-outline" cx="0" cy="0" r="25" fill="#57C7E3" stroke="#23b3d7" stroke-width="2px"/><text class="caption" text-anchor="middle" pointer-events="none" x="0" y="5" font-size="10px" fill="#2A2C34" font-family="Helvetica Neue, Helvetica, Arial, sans-serif"> tit_09_ar…</text></g><g class="node" aria-label="graph-node12221" transform="translate(-311.2266563122657,119.1426082720912)"><circle class="b-outline" cx="0" cy="0" r="25" fill="#F79767" stroke="#f36924" stroke-width="2px"/><text class="caption" text-anchor="middle" pointer-events="none" x="0" y="5" font-size="10px" fill="#FFFFFF" font-family="Helvetica Neue, Helvetica, Arial, sans-serif"> article</text></g></g></svg>